<svg xmlns="http://www.w3.org/2000/svg" xmlns:xlink="http://www.w3.org/1999/xlink" width="2000" zoomAndPan="magnify" viewBox="0 0 1500 1499.999933" height="2000" preserveAspectRatio="xMidYMid meet" version="1.0"><defs><g/><clipPath id="ebfac6ec32"><rect x="0" width="856" y="0" height="1166"/></clipPath></defs><rect x="-150" width="1800" fill="#ffffff" y="-149.999993" height="1799.99992" fill-opacity="1"/><rect x="-150" width="1800" fill="#ffffff" y="-149.999993" height="1799.99992" fill-opacity="1"/><g fill="#000000" fill-opacity="1"><g transform="translate(136.918351, 1359.221611)"><g><path d="M 490.042969 -442.605469 L 490.042969 -1264.382812 L 1250.164062 -1264.382812 L 1250.164062 -623.914062 C 1250.164062 -536.460938 1235.285156 -451.4375 1205.53125 -368.847656 C 1175.632812 -285.871094 1130.1875 -212.054688 1069.191406 -147.398438 C 1009.34375 -83.886719 940.59375 -35.929688 862.945312 -3.523438 C 785.605469 28.75 704.921875 46.105469 620.890625 48.542969 C 536.859375 50.976562 454.964844 38.191406 375.207031 10.183594 C 295.390625 -17.84375 223.195312 -59.875 158.628906 -115.917969 C 97.539062 -168.453125 48.964844 -231.085938 12.90625 -303.816406 C -23.324219 -376.890625 -41.4375 -454.554688 -41.4375 -536.816406 L -41.4375 -661.800781 L 498.265625 -661.800781 L 498.265625 -442.605469 L 479.933594 -442.605469 L 479.933594 -460.9375 L 508.375 -460.9375 L 508.375 -442.605469 Z M 526.707031 -424.277344 L 461.605469 -424.277344 L 461.605469 -643.46875 L 479.933594 -643.46875 L 479.933594 -625.136719 L -23.109375 -625.136719 L -23.109375 -643.46875 L -4.777344 -643.46875 L -4.777344 -536.816406 C -4.777344 -460.28125 12.066406 -388.042969 45.753906 -320.101562 C 79.609375 -251.8125 125.246094 -192.980469 182.660156 -143.605469 C 243.703125 -90.621094 311.9375 -50.886719 387.355469 -24.40625 C 462.835938 2.097656 540.328125 14.199219 619.828125 11.894531 C 699.332031 9.589844 775.664062 -6.828125 848.824219 -37.359375 C 921.671875 -67.757812 986.238281 -112.824219 1042.523438 -172.558594 C 1100.027344 -233.511719 1142.867188 -303.085938 1171.039062 -381.273438 C 1199.347656 -459.847656 1213.503906 -540.726562 1213.503906 -623.914062 L 1213.503906 -1246.054688 L 1231.832031 -1246.054688 L 1231.832031 -1227.722656 L 508.375 -1227.722656 L 508.375 -1246.054688 L 526.707031 -1246.054688 Z M 526.707031 -424.277344 "/></g></g></g><g transform="matrix(1, 0, 0, 1, 140, 209)"><g clip-path="url(#ebfac6ec32)"><g fill="#000000" fill-opacity="1"><g transform="translate(19.253042, 874.096131)"><g><path d="M 101.328125 -15.140625 C 71.046875 -29.890625 46.78125 -50.660156 28.53125 -77.453125 C 10.289062 -104.242188 -0.1875 -133.75 -2.90625 -165.96875 C -5.625 -198.195312 0.00390625 -229.066406 13.984375 -258.578125 L 234.125 -725.65625 C 250.425781 -760.59375 273.71875 -786.988281 304 -804.84375 C 334.28125 -822.707031 366.695312 -831.832031 401.25 -832.21875 C 435.8125 -832.613281 468.234375 -824.070312 498.515625 -806.59375 C 528.804688 -789.125 552.492188 -762.53125 569.578125 -726.8125 L 792.046875 -258.578125 C 806.796875 -229.066406 812.617188 -198.195312 809.515625 -165.96875 C 806.410156 -133.75 795.925781 -104.242188 778.0625 -77.453125 C 760.207031 -50.660156 735.75 -29.890625 704.6875 -15.140625 C 674.394531 -1.160156 642.941406 4.46875 610.328125 1.75 C 577.722656 -0.96875 548.21875 -11.453125 521.8125 -29.703125 C 495.414062 -47.953125 474.835938 -72.21875 460.078125 -102.5 L 359.90625 -313.328125 C 359.132812 -315.648438 357.191406 -316.421875 354.078125 -315.640625 C 350.972656 -314.867188 349.8125 -312.539062 350.59375 -308.65625 L 382.046875 -178.203125 L 347.09375 -102.5 C 332.34375 -72.21875 311.570312 -47.953125 284.78125 -29.703125 C 257.988281 -11.453125 228.476562 -0.96875 196.25 1.75 C 164.03125 4.46875 132.390625 -1.160156 101.328125 -15.140625 Z M 101.328125 -15.140625 "/></g></g></g></g></g></svg>